<svg width="16" height="16" viewBox="0 0 16 16" fill="none" xmlns="http://www.w3.org/2000/svg">
<path fill-rule="evenodd" clip-rule="evenodd" d="M1.64689 4.64598C1.69334 4.59941 1.74852 4.56247 1.80926 4.53727C1.87001 4.51206 1.93513 4.49908 2.00089 4.49908C2.06666 4.49908 2.13178 4.51206 2.19253 4.53727C2.25327 4.56247 2.30845 4.59941 2.35489 4.64598L8.00089 10.293L13.6469 4.64598C13.6934 4.59949 13.7486 4.56261 13.8093 4.53745C13.87 4.5123 13.9351 4.49935 14.0009 4.49935C14.0666 4.49935 14.1317 4.5123 14.1925 4.53745C14.2532 4.56261 14.3084 4.59949 14.3549 4.64598C14.4014 4.69247 14.4383 4.74766 14.4634 4.80839C14.4886 4.86913 14.5015 4.93423 14.5015 4.99998C14.5015 5.06572 14.4886 5.13082 14.4634 5.19156C14.4383 5.2523 14.4014 5.30749 14.3549 5.35398L8.35489 11.354C8.30845 11.4005 8.25327 11.4375 8.19253 11.4627C8.13178 11.4879 8.06666 11.5009 8.00089 11.5009C7.93513 11.5009 7.87001 11.4879 7.80926 11.4627C7.74852 11.4375 7.69334 11.4005 7.64689 11.354L1.64689 5.35398C1.60033 5.30753 1.56339 5.25236 1.53818 5.19161C1.51297 5.13087 1.5 5.06575 1.5 4.99998C1.5 4.93421 1.51297 4.86909 1.53818 4.80834C1.56339 4.7476 1.60033 4.69242 1.64689 4.64598Z" fill="black"/>
</svg>
